<svg version="1.2" xmlns="http://www.w3.org/2000/svg" viewBox="0 0 567 513" width="567" height="513">
  <title>dax-pay-无汉字-svg</title>
  <style>
    .s0 { fill: #ebb54b }
    .s1 { fill: #403f3b }
  </style>
  <g id="#ffffffff">
  </g>
  <g id="#ebb54bff">
    <path id="Layer" class="s0" d="m286.3 29.2c28.6-12.8 60.3-20.1 91.7-17.2 22.5 2.3 44.5 10.6 62.5 24.4 16 11.9 28.2 28.3 37.3 45.9 17.9 35.1 23 75.4 21.3 114.4-7.5 0.4-15 0.1-22.5 0-0.5-8.5-0.1-17.1-0.7-25.7-0.7-21.2-4.4-42.3-11.7-62.2-6.1-16.7-15.2-32.5-27.8-45.2-16.3-16.2-38.4-26.7-61.4-28.4-27.6-3-55.2 4.4-80.4 15.5-18.5 8.1-35.5 19.2-52.1 30.7-40.8 29-74.9 66.7-103.4 107.6-2.1 2.8-4.1 6.1-7.5 7.3-8.2 2-16.5 0.5-24.7 0.3 13.3-22.4 29-43.2 45.8-63 13.4-15.8 27.7-30.9 43.3-44.6 26.6-24.6 57-45.3 90.3-59.8z"/>
    <path id="Layer" class="s0" d="m71.9 333.6c7.3-1.4 14.8-0.9 22.2-0.2 1.1 22.7 3.8 45.6 11.4 67.2 6.5 18.4 16.4 35.8 30.6 49.4 12.9 12.3 29.4 20.9 47 24.5 13.7 3.1 28 3 41.9 1.3 18.1-2.4 35.6-8.3 52.3-15.4 18.1-7.7 34.5-18.5 50.5-29.6 35.6-25.6 66.2-57.6 92.4-92.6 2.4-3.7 6.6-5.3 10.9-5.3 6.7-0.6 13.4 0.5 20.2 0.6-7.6 13.2-17.2 25.2-26.8 37-23.5 28.7-50.1 55.1-80 77.1-31.3 22.8-66.3 41.6-104.5 49.5-16.1 3.3-32.6 3-48.9 2.2-19.8-1.7-39.2-8.6-55.5-19.9-23.7-16.2-40.9-40.5-50.7-67.2-7.5-19.9-11.5-41.1-13.2-62.2-0.5-5.5-0.3-10.9 0.2-16.4z"/>
  </g>
  <g id="#403f3bff">
    <path id="Layer" fill-rule="evenodd" class="s1" d="m29.1 203.6c7.2-1.3 14.6-0.9 21.9-0.9 12.3 0.2 25.1-0.8 36.8 3.5 7.2 2.5 12.8 8.5 15.2 15.7 3.8 11.1 2.2 23 0 34.3-2.9 13.8-8.8 27.7-20.1 36.6-11 8.6-25.4 10.7-38.9 10.5-10.9 0.2-21.7-0.1-32.6-0.1 3.7-25.5 8.8-50.7 13.1-76.1 1.4-7.9 2.3-15.8 4.6-23.5zm16.5 27.8c-3 17.7-6 35.3-9.1 53 10.2 0.1 21.5 1.3 30.5-4.5 8.5-5.8 11.8-16.2 13.7-25.8 1.2-6.3 1.6-12.8 0.8-19.2-0.6-4.9-3.8-9.7-8.6-11.5-7.9-2.8-16.3-2.4-24.5-2q-1.9 4.9-2.8 10z"/>
    <path id="Layer" fill-rule="evenodd" class="s1" d="m308.3 203.5c12.5-1.7 25.2-0.5 37.8-0.7 9 0.6 19.3 1.3 25.9 8.2 5.8 6.2 5.2 15.3 4.3 23.1-1.6 9.6-4.1 19.8-11 27.1-6.5 6.9-16.1 9.7-25.2 10.6-7.5 0.7-14.9 0.7-22.3 1-1.9 10.1-3.7 20.3-5.4 30.4q-11.1 0.1-22.2 0c4.5-27.1 9.6-54.2 14.2-81.3 1-6.2 1.8-12.5 3.9-18.4zm19.2 17c-3.7 11.1-4.6 22.8-6.6 34.2 7.8-0.1 16 0.9 23.3-2.3 6.8-3.3 9.2-11.4 9.5-18.4 0.4-4.2-0.3-9.2-4.3-11.5-6.8-3.1-14.6-3-21.9-2z"/>
    <path id="Layer" fill-rule="evenodd" class="s1" d="m142.3 225.4c2.6-1.5 5.8-1.1 8.6-1.5 10.4-0.3 21.3-0.8 31.1 3.2 4.9 2 9 6.3 9.6 11.7 1 8.5-1.2 16.8-2.6 25.1-2.3 13.1-4.8 26.2-7 39.4q-9.4-0.1-18.8 0c-0.3-2.5-0.5-5-0.8-7.5-6.2 3.8-12.7 8-20.2 8.7-7.5 0.6-15.6 0.6-22.2-3.4-4-2.2-6.6-6.6-7-11.1-1.1-9.6 1.9-20.1 9.5-26.4 6.6-5.3 15.3-6.7 23.6-7.2 7.8-0.2 15.6 0 23.4-0.1-0.4-4.2 1.1-9.3-2.1-12.6-9.2-4.1-19.6-1.7-29.2-1 1.1-5.8 1.3-12 4.1-17.3zm-3.6 47.4c-4.6 2.7-7.2 11.1-2 14.5 7.9 3.1 17.3 1.3 24.2-3.4 4.3-3 4.9-8.5 6.1-13.2-9.4-0.3-19.4-1.7-28.3 2.1z"/>
    <path id="Layer" fill-rule="evenodd" class="s1" d="m409.2 225.5c8.1-2.3 16.6-1.7 24.8-1.6 8.3 0.6 17.8 2 23 9.1 4.1 6.7 2.4 14.8 1.3 22.1-3 16-5.8 32.1-8.7 48.1q-9.4 0.1-18.8 0-0.3-3.7-0.6-7.5c-10.9 8-25.4 11.5-38.5 7.5-5.6-1.6-10.3-6.4-11.1-12.2-1.9-11.8 3.3-25.6 14.6-30.7 13.3-5.9 28-3.5 42-4-0.3-4.3 1.2-10.5-3.3-13.1-9-3.3-18.7-1.1-28-0.6 0.7-5.8 1.7-11.5 3.3-17.1zm-2.6 47c-3.9 2.3-5.7 7.3-4.8 11.6 0.9 3.5 4.9 4.4 8.1 4.6 6.5 0.3 13.3-1.3 18.7-5.1 4.2-2.9 4.7-8.4 6.1-12.9-9.3-0.3-19.2-1.7-28.1 1.8z"/>
    <path id="Layer" class="s1" d="m210.3 225.4c7.7-0.6 15.5-1.1 23.2 0 5.5 7.5 7.7 16.8 11.7 25.1 5.7-6.1 10.5-13 15.6-19.6 2.1-2.6 4.6-5.6 8.2-5.8 6.7-0.7 13.5-0.3 20.2 0.4-9.7 13-20.9 24.9-31 37.6 6.2 13.5 13.3 26.5 19.3 40.1-8.3 0.1-16.5 0-24.7 0.1-3.9-9-7.7-18.1-12.1-26.8-5.8 6.6-11.1 13.7-16.5 20.6-2.1 2.6-4.4 5.8-8.1 6.1-7.1 0.6-14.2 0.2-21.4 0 10.6-13.6 22.2-26.3 33.4-39.3-5.2-13.2-12.4-25.4-17.8-38.5z"/>
    <path id="Layer" class="s1" d="m476.1 225c7.4-0.3 14.8-0.1 22.2-0.2 3.4 18.6 5.5 37.5 9.1 56.1 10-18.4 18.2-37.7 28.1-56.1 7.2-0.1 14.4 0.3 21.6 0.6-10 20.5-21.7 40.2-32.4 60.3-4.6 8.4-9 16.8-14.3 24.7-5 7.2-11.1 14.2-19.3 17.8-7.8 3.5-16.5 3.9-24.9 4.3 1-5.9 2.1-11.7 3.2-17.6 5.6-1.1 11.6-1.8 16.5-5 2.6-1.8 5-4.5 5-7.8 0.1-4.5-1-8.9-1.9-13.2-3.4-15-6.7-30-10-44.9-1.4-6.3-3.1-12.6-2.9-19z"/>
  </g>
</svg>
